<?xml version="1.0" standalone="no"?>
<!DOCTYPE svg PUBLIC "-//W3C//DTD SVG 20010904//EN"
 "http://www.w3.org/TR/2001/REC-SVG-20010904/DTD/svg10.dtd">
<svg version="1.0" xmlns="http://www.w3.org/2000/svg"
 width="2128.000000pt" height="1951.000000pt" viewBox="0 0 2128.000000 1951.000000"
 preserveAspectRatio="xMidYMid meet">

<g transform="translate(0.000000,1951.000000) scale(0.100000,-0.100000)"
fill="#000000" stroke="none">
<path d="M10310 17061 c-52 -9 -52 -38 -1 -58 22 -8 42 -22 45 -29 7 -17 48
-575 43 -580 -2 -2 -48 54 -104 124 -126 160 -299 356 -391 445 l-70 67 -89
-6 c-48 -4 -96 -11 -106 -16 -29 -15 -15 -41 32 -59 24 -8 47 -22 52 -30 9
-18 49 -555 49 -669 l0 -80 -40 -26 c-25 -17 -40 -34 -38 -43 3 -14 21 -16
126 -14 123 3 162 12 162 37 0 8 -15 19 -32 26 -56 20 -63 26 -74 61 -12 34
-59 657 -51 666 6 5 193 -195 295 -317 44 -52 136 -169 204 -259 67 -90 131
-169 140 -175 41 -25 42 -4 14 396 -34 484 -34 462 4 484 31 19 44 39 34 55
-6 10 -148 10 -204 0z"/>
<path d="M11064 17055 c-5 -12 4 -27 30 -51 20 -18 36 -35 36 -38 0 -38 -52
-716 -56 -728 -3 -9 -20 -26 -39 -37 -38 -22 -45 -45 -17 -60 9 -5 67 -11 127
-13 102 -3 110 -2 113 16 3 13 -7 29 -29 47 l-33 27 26 373 c28 409 20 369 90
421 21 15 22 18 7 32 -11 13 -44 18 -132 23 -105 5 -117 4 -123 -12z"/>
<path d="M11417 17038 c-24 -18 -14 -39 31 -63 31 -17 37 -26 40 -58 3 -36
-35 -431 -59 -612 -13 -97 -20 -110 -67 -133 -24 -11 -37 -24 -37 -37 0 -25
48 -35 180 -38 116 -2 128 9 58 55 -26 18 -44 38 -47 56 -6 26 58 659 67 668
6 6 133 -186 212 -319 32 -55 108 -196 169 -315 89 -174 115 -218 133 -220 28
-4 24 -28 73 447 23 211 45 392 51 402 5 11 16 19 23 19 8 0 24 9 37 19 21 18
22 21 9 35 -21 20 -207 41 -226 25 -21 -18 -17 -28 21 -50 44 -26 44 -22 8
-366 l-27 -261 -79 146 c-138 255 -331 563 -365 581 -9 5 -44 12 -77 16 -33 3
-71 8 -85 11 -14 2 -33 -1 -43 -8z"/>
<path d="M9113 16931 c-155 -25 -287 -51 -294 -58 -17 -17 -3 -43 30 -54 21
-7 33 -21 40 -42 13 -40 111 -664 111 -703 0 -20 -10 -38 -30 -56 -38 -33 -31
-58 15 -58 52 0 607 90 635 103 22 11 25 19 28 72 6 113 -15 133 -69 65 -18
-22 -55 -51 -83 -65 -52 -25 -248 -65 -318 -65 -35 0 -41 4 -52 33 -8 17 -23
95 -35 172 -12 77 -23 147 -25 156 -3 14 18 20 136 39 131 21 163 21 231 5 26
-7 27 -6 26 36 -3 103 -28 133 -73 89 -13 -11 -38 -25 -57 -29 -59 -15 -268
-45 -274 -39 -10 9 -46 260 -41 275 9 22 67 41 173 59 125 20 199 14 249 -20
21 -14 44 -26 51 -26 30 0 6 133 -27 150 -26 14 -30 13 -347 -39z"/>
<path d="M12467 16883 c-14 -13 -6 -40 18 -63 14 -13 25 -32 25 -42 0 -34
-140 -683 -152 -707 -7 -13 -29 -30 -48 -36 -34 -11 -50 -39 -33 -55 10 -11
188 -50 225 -50 44 0 48 28 10 60 -18 15 -32 35 -32 46 0 10 15 90 32 177 l33
159 40 -7 c109 -17 217 -49 257 -76 58 -39 75 -37 87 9 15 51 14 102 -1 103
-7 1 -41 0 -74 -1 -59 -2 -272 34 -285 48 -9 10 54 287 70 306 18 21 78 20
166 -3 115 -29 190 -68 221 -112 15 -21 33 -39 40 -39 21 0 34 34 34 89 0 42
-4 53 -24 66 -21 14 -552 135 -590 135 -7 0 -16 -3 -19 -7z"/>
<path d="M8487 16805 c-38 -12 -73 -27 -78 -32 -5 -5 -14 -72 -19 -149 -15
-210 -57 -524 -70 -524 -8 0 -226 256 -315 370 -84 108 -116 140 -138 140 -41
0 -185 -51 -192 -68 -8 -22 20 -42 61 -42 17 0 36 -6 42 -12 10 -12 154 -530
186 -666 l14 -63 -30 -35 c-32 -36 -32 -64 0 -64 38 0 213 61 219 77 8 19 -22
43 -54 43 -12 0 -29 10 -37 23 -12 18 -154 495 -182 612 -5 22 25 -9 111 -115
161 -197 299 -354 330 -374 31 -20 40 -16 54 27 12 37 54 344 72 527 7 69 14
121 15 115 2 -5 46 -144 99 -308 52 -163 95 -305 95 -315 0 -10 -11 -29 -25
-42 -28 -26 -32 -48 -11 -56 21 -8 243 63 249 80 7 19 -9 32 -51 41 -21 4 -37
16 -46 33 -13 25 -205 615 -220 674 -5 22 0 33 30 61 71 66 20 86 -109 42z"/>
<path d="M13480 16599 c-122 -25 -255 -128 -317 -244 -132 -251 -87 -524 108
-654 283 -189 617 -35 710 327 63 247 -45 465 -271 549 -67 25 -169 35 -230
22z m233 -106 c108 -49 162 -144 161 -283 -2 -193 -117 -413 -250 -480 -134
-67 -307 -12 -378 120 -58 107 -44 276 34 439 102 210 257 283 433 204z"/>
<path d="M7422 16440 c-166 -67 -530 -225 -541 -235 -22 -22 -5 -44 39 -51 32
-5 44 -13 57 -37 46 -89 273 -643 273 -665 0 -15 -7 -36 -15 -46 -23 -31 -19
-56 9 -56 29 0 584 235 609 258 22 20 20 87 -4 137 -22 45 -44 38 -76 -25 -36
-71 -83 -105 -221 -164 -147 -62 -166 -65 -187 -32 -18 28 -147 318 -143 321
2 2 63 28 137 60 98 41 144 56 175 55 79 -3 80 -1 42 85 -28 62 -54 72 -76 29
-16 -30 -32 -39 -188 -105 -63 -27 -119 -46 -123 -42 -15 16 -99 226 -99 247
0 37 54 72 189 123 98 37 147 43 200 27 25 -8 52 -14 59 -14 17 0 15 35 -4 73
-33 66 -58 78 -112 57z"/>
<path d="M14283 16303 c-17 -6 -16 -33 2 -57 8 -11 15 -31 14 -45 0 -14 -73
-172 -162 -351 l-162 -325 -38 -6 c-90 -14 -73 -43 64 -109 101 -49 111 -52
126 -37 15 15 14 19 -11 56 -33 48 -34 45 46 204 42 86 63 117 73 113 8 -3 53
-17 100 -32 53 -17 86 -32 89 -43 16 -53 26 -148 26 -236 0 -115 -12 -145 -59
-145 -31 0 -57 -23 -46 -40 10 -16 202 -110 225 -110 24 0 27 32 5 70 -11 19
-15 67 -15 195 -1 94 -5 191 -9 216 l-7 47 72 4 c98 7 167 45 210 116 61 101
52 168 -35 253 -47 46 -92 73 -257 156 -207 104 -231 114 -251 106z m255 -193
c169 -80 224 -162 174 -260 -37 -74 -120 -101 -250 -80 -86 14 -202 47 -202
58 0 14 132 277 147 295 23 25 59 21 131 -13z"/>
<path d="M6610 16059 c-52 -27 -101 -56 -109 -64 -23 -23 3 -44 61 -47 l50 -3
105 -195 c186 -347 214 -407 216 -455 2 -55 -23 -91 -84 -123 -58 -31 -113
-24 -151 18 -36 39 -35 64 2 107 37 41 38 67 5 89 -22 14 -30 15 -56 3 -94
-38 -89 -202 8 -276 50 -38 140 -44 209 -14 124 55 174 118 174 217 0 70 -12
97 -198 447 -67 125 -122 236 -122 246 0 10 7 31 15 47 10 20 11 32 3 41 -16
20 -25 17 -128 -38z"/>
<path d="M15123 15874 c-3 -8 4 -28 16 -44 11 -16 21 -38 21 -49 0 -18 -364
-536 -418 -593 -21 -23 -34 -28 -73 -28 -52 0 -69 -18 -41 -43 9 -8 52 -37 94
-66 106 -70 142 -67 102 11 -9 17 -14 38 -11 47 4 16 374 551 381 551 2 0 -7
-48 -20 -107 -52 -236 -94 -477 -94 -539 l0 -66 28 6 c32 8 237 130 439 262
l142 92 -49 -76 c-27 -42 -109 -167 -182 -277 l-133 -200 -42 0 c-52 0 -72
-16 -52 -41 19 -24 188 -134 205 -134 23 0 27 21 9 60 -17 38 -17 40 2 77 29
55 361 564 384 587 15 17 23 18 52 9 40 -12 67 -1 67 27 0 23 -138 120 -170
120 -12 0 -65 -31 -118 -68 -174 -123 -448 -290 -458 -279 -7 6 51 318 95 512
34 153 35 148 -64 218 -72 49 -102 58 -112 31z"/>
<path d="M5784 15585 c-15 -61 41 -371 130 -720 34 -131 52 -222 49 -241 -8
-50 17 -49 99 5 40 26 79 55 87 64 20 26 -3 47 -51 47 -38 0 -40 2 -62 53 -33
73 -59 168 -49 177 4 4 77 53 161 109 l154 102 41 -28 c22 -15 63 -49 91 -74
50 -46 50 -46 39 -83 -25 -81 9 -86 110 -17 112 75 124 103 50 114 -28 5 -73
34 -178 117 -251 198 -575 400 -641 400 -17 0 -25 -7 -30 -25z m261 -223 c54
-35 119 -79 142 -97 l44 -33 -126 -87 c-69 -47 -132 -88 -139 -91 -14 -5 -53
157 -80 328 l-13 88 36 -22 c20 -12 81 -50 136 -86z"/>
<path d="M5283 15204 c-101 -80 -113 -128 -26 -101 27 9 36 7 54 -9 30 -27
362 -435 357 -439 -2 -2 -64 14 -138 36 -169 50 -506 134 -605 150 l-75 12
-52 -41 c-67 -52 -108 -90 -108 -101 0 -24 29 -31 74 -19 45 12 47 12 75 -17
64 -65 432 -532 438 -554 3 -13 -1 -38 -10 -57 -9 -18 -14 -40 -11 -49 5 -12
-2 -15 -31 -15 -26 0 -94 26 -219 84 -303 140 -598 241 -684 234 -36 -3 -37
-4 -35 -41 4 -64 98 -285 241 -567 74 -146 138 -283 141 -305 9 -62 32 -57
106 22 42 44 65 77 65 92 0 22 -2 23 -48 17 -42 -5 -51 -3 -69 16 -26 28 -103
158 -103 174 0 6 57 73 127 148 145 157 126 151 258 83 l80 -42 3 -48 c3 -50
18 -66 46 -50 33 18 145 153 140 168 -4 8 -1 15 6 15 16 0 200 149 207 167 11
28 -13 37 -61 23 -40 -11 -49 -10 -70 4 -14 9 -111 123 -217 253 -106 131
-199 246 -208 257 -15 18 -14 18 30 12 162 -24 534 -123 757 -201 141 -50 182
-56 182 -26 0 11 -117 165 -261 342 -242 300 -260 325 -254 353 12 58 10 80
-5 83 -8 2 -52 -26 -97 -63z m-570 -1119 l87 -37 -100 -108 c-55 -59 -106
-113 -114 -119 -13 -11 -22 2 -60 77 -46 91 -126 278 -126 293 0 10 188 -54
313 -106z"/>
<path d="M16270 15006 c-136 -57 -362 -181 -600 -329 -80 -50 -161 -93 -180
-96 -57 -10 -49 -33 32 -100 93 -78 113 -78 113 -2 0 54 0 55 57 100 31 25 72
54 91 64 l35 19 150 -122 151 -122 -25 -66 c-57 -151 -57 -150 -111 -154 -40
-3 -48 -6 -51 -25 -2 -16 16 -36 79 -88 45 -36 89 -65 98 -63 12 2 18 20 23
68 4 42 22 105 52 178 112 280 221 680 201 743 -8 26 -46 24 -115 -5z m-34
-212 c-14 -55 -40 -143 -58 -197 l-33 -98 -122 98 c-67 54 -122 103 -123 108
-4 20 351 214 358 196 2 -5 -8 -53 -22 -107z"/>
<path d="M16639 14682 c-24 -16 -52 -39 -63 -50 -27 -31 -7 -52 48 -52 24 0
64 -7 90 -16 49 -17 126 -80 126 -104 0 -17 -496 -517 -532 -536 -20 -11 -33
-11 -58 -3 -26 10 -35 9 -48 -5 -15 -15 -10 -23 75 -108 66 -66 96 -89 108
-84 14 5 16 14 10 57 l-7 52 263 263 c183 183 271 264 286 264 44 0 102 -93
110 -179 10 -100 31 -114 80 -53 41 51 55 80 49 100 -7 21 -468 482 -482 482
-6 0 -30 -13 -55 -28z"/>
<path d="M6415 14103 c-1292 -984 -2171 -2387 -2474 -3943 -206 -1059 -138
-2166 195 -3190 726 -2234 2643 -3942 5005 -4459 517 -113 974 -161 1529 -161
330 0 509 9 795 41 1796 197 3450 1086 4576 2459 1243 1514 1731 3454 1349
5360 -159 793 -490 1590 -945 2275 -379 570 -868 1104 -1402 1528 -187 149
-277 213 -269 191 22 -56 81 -290 111 -439 64 -325 91 -632 82 -945 -5 -163
-25 -416 -40 -509 -1 -7 6 -18 15 -24 19 -12 107 26 517 225 134 65 248 118
252 118 4 0 35 -84 68 -187 136 -425 231 -737 231 -756 0 -12 -74 -95 -195
-219 -107 -110 -194 -203 -192 -206 2 -4 88 -188 192 -409 174 -371 190 -400
209 -393 12 5 116 49 232 98 l212 89 7 -66 c9 -88 34 -208 89 -426 73 -291
137 -594 134 -628 -3 -27 -11 -36 -61 -61 -32 -16 -137 -59 -235 -96 l-177
-66 3 -154 c8 -381 22 -874 27 -878 2 -2 112 6 244 19 133 12 242 21 244 18 6
-6 -187 -1326 -194 -1334 -4 -3 -122 14 -263 39 -141 26 -258 46 -261 46 -18
0 -146 -324 -239 -606 -36 -111 -66 -204 -66 -207 0 -3 87 -53 193 -112 105
-60 193 -109 195 -111 7 -5 -649 -1095 -656 -1090 -4 2 -105 63 -224 135
l-218 132 -357 -262 c-197 -144 -360 -263 -362 -265 -2 -2 69 -93 158 -203 88
-110 161 -204 161 -210 0 -5 -222 -164 -492 -352 -271 -188 -520 -362 -554
-385 l-61 -43 -172 254 c-95 140 -177 255 -182 255 -6 0 -196 -68 -422 -150
-227 -83 -417 -152 -423 -154 -8 -3 -1 -55 23 -163 18 -87 36 -205 40 -263 l6
-106 -454 -42 c-249 -23 -454 -40 -456 -39 -3 3 -101 1321 -98 1325 1 1 58 9
126 17 852 99 1848 570 2560 1211 366 329 722 817 970 1329 224 465 357 923
399 1375 17 184 8 929 -14 1075 -88 601 -315 1159 -684 1684 -82 117 -112 149
-112 121 0 -26 -163 -344 -254 -494 -250 -413 -569 -786 -926 -1083 -111 -93
-136 -119 -145 -150 -10 -37 -12 -38 -63 -43 -57 -6 -97 -30 -49 -30 l27 0
-20 -52 c-31 -82 -85 -156 -194 -263 -161 -160 -367 -303 -511 -357 -58 -22
-74 -23 -555 -29 -631 -9 -712 -22 -172 -29 l403 -5 150 -313 c82 -172 149
-316 149 -319 0 -7 -4127 1 -4135 9 -6 5 83 391 136 591 l10 37 762 1 c664 1
754 3 697 14 -50 11 -218 14 -749 14 l-684 1 7 83 c4 45 20 149 36 230 17 82
28 152 25 156 -2 5 -57 40 -122 78 -675 404 -1269 1054 -1620 1773 -42 85 -77
156 -77 157 -1 1 -40 -11 -86 -27 -101 -34 -222 -60 -283 -60 -59 0 -142 26
-198 61 -64 40 -142 125 -174 188 -24 49 -28 52 -39 35 -7 -11 -70 -116 -141
-234 -70 -118 -136 -229 -146 -246 l-19 -32 62 27 c61 25 70 26 253 26 188 0
192 0 341 -39 84 -21 157 -42 164 -46 9 -6 7 -18 -8 -51 -61 -137 -294 -358
-473 -449 -94 -48 -163 -63 -256 -57 -103 7 -157 30 -228 98 -36 34 -56 47
-59 38 -2 -8 -25 -114 -51 -235 -56 -264 -84 -425 -85 -478 l0 -40 28 45 c106
166 347 254 745 273 l97 4 0 -27 c0 -71 -65 -225 -151 -356 -115 -176 -246
-307 -365 -362 -52 -25 -70 -28 -154 -27 -96 0 -127 8 -192 51 -52 33 -53 30
-55 -415 -2 -362 0 -400 12 -346 27 125 110 241 242 340 142 107 347 196 483
211 l61 6 -6 -64 c-22 -229 -109 -479 -221 -636 -56 -79 -141 -159 -207 -194
-89 -47 -205 -52 -301 -13 -18 7 -19 3 -13 -70 4 -43 19 -131 33 -195 26 -116
116 -438 152 -541 l19 -55 5 105 c6 125 37 215 114 331 64 98 223 256 359 357
61 45 113 82 116 82 3 0 11 -40 18 -88 21 -138 10 -493 -17 -594 -44 -161
-103 -276 -186 -359 -67 -68 -119 -90 -222 -97 l-84 -5 91 -176 c94 -179 198
-360 241 -418 l24 -32 12 97 c21 178 94 377 193 523 71 107 246 275 265 257
11 -12 129 -646 122 -659 -4 -8 -14 -56 -22 -108 -27 -173 -122 -314 -259
-382 -34 -17 -64 -33 -66 -35 -2 -2 425 -503 511 -599 5 -5 4 4 -3 20 -7 17
-14 99 -17 187 -4 151 -3 162 23 245 66 212 219 475 302 520 18 9 34 15 36 13
2 -3 20 -54 39 -115 20 -60 57 -168 81 -240 55 -159 71 -246 71 -395 0 -96 -4
-124 -22 -169 -44 -106 -122 -197 -229 -266 -32 -21 -60 -40 -62 -42 -8 -6 91
-102 204 -197 113 -96 375 -296 387 -296 3 0 -9 25 -27 56 -61 101 -70 142
-69 309 1 179 16 266 81 450 25 72 55 165 67 208 11 42 24 77 27 77 16 0 102
-108 149 -185 66 -109 162 -310 195 -410 35 -105 44 -243 22 -332 -35 -134
-124 -269 -200 -303 l-39 -18 139 -87 c272 -173 507 -300 678 -368 91 -36 195
-69 195 -62 0 2 -20 27 -45 56 -64 75 -85 128 -96 237 -21 228 48 596 150 791
l28 54 42 -42 c116 -116 258 -401 312 -626 45 -191 8 -341 -121 -478 l-60 -65
50 -21 c127 -55 490 -155 745 -206 71 -15 131 -28 133 -30 2 -1 2 -27 0 -57
l-3 -54 -505 118 c-277 64 -506 115 -508 113 -2 -2 2 -13 8 -25 10 -19 4 -37
-43 -133 -68 -139 -117 -196 -204 -239 -59 -29 -76 -32 -177 -36 -131 -5 -241
13 -391 63 -119 39 -255 100 -255 114 0 16 73 102 141 167 112 106 259 199
401 254 63 25 69 29 52 39 -10 7 -170 92 -354 190 l-335 178 -16 -56 c-22 -79
-54 -136 -106 -192 -95 -102 -206 -149 -351 -149 -104 0 -172 17 -410 100 -97
34 -183 64 -190 66 -33 9 129 193 249 284 132 99 328 180 436 180 19 0 33 4
31 10 -1 5 -93 87 -203 181 -263 226 -287 249 -511 489 -235 251 -367 403
-542 625 -165 208 -170 213 -136 147 32 -61 42 -139 24 -182 -18 -42 -105
-119 -176 -155 -55 -27 -67 -29 -174 -30 -109 0 -118 2 -184 33 -154 72 -395
285 -494 434 -14 21 -23 40 -21 42 12 9 374 117 423 126 83 14 211 12 272 -4
83 -22 173 -76 243 -146 l65 -65 -42 58 c-104 140 -295 480 -390 692 l-31 70
0 -53 c-1 -74 -21 -105 -83 -136 -109 -52 -263 -59 -353 -16 -151 72 -385 400
-474 666 l-30 89 70 3 c94 4 286 -22 395 -53 114 -34 232 -95 302 -159 31 -28
53 -44 50 -35 -27 70 -104 325 -128 419 -26 105 -74 350 -83 425 l-3 30 -13
-30 c-7 -16 -15 -47 -18 -67 l-6 -38 -118 0 c-94 0 -129 4 -171 20 -175 66
-305 282 -368 608 -23 119 -43 362 -30 375 12 13 124 -19 203 -59 39 -19 105
-58 146 -87 103 -70 276 -245 324 -327 l37 -65 0 416 c0 229 3 432 6 450 5 30
3 28 -21 -18 -42 -82 -65 -96 -152 -91 -195 13 -330 167 -388 444 -9 43 -21
144 -25 224 -8 126 -7 165 12 300 12 85 23 157 24 159 6 6 98 -51 159 -100 78
-61 200 -187 258 -268 55 -74 133 -226 143 -276 7 -40 24 -37 24 5 0 48 58
379 90 511 78 322 216 622 494 1069 91 145 163 266 161 268 -2 2 -17 -5 -32
-16 -36 -25 -109 -45 -138 -38 -36 9 -102 92 -148 185 l-42 85 0 125 c0 112 3
136 29 214 36 110 127 296 197 402 54 81 166 205 186 205 25 0 91 -207 118
-370 22 -125 32 -466 16 -511 -6 -19 -8 -29 -3 -24 8 9 281 351 304 382 6 7 4
44 -3 95 -10 71 -18 90 -50 133 -65 86 -102 178 -107 266 -7 114 32 269 102
407 19 37 27 81 40 203 26 254 74 507 141 739 18 63 32 116 32 116 -1 1 -69
-50 -152 -113z m-1320 -2410 c89 -91 253 -382 306 -544 21 -65 24 -92 24 -229
0 -155 0 -156 -32 -220 -38 -76 -94 -144 -152 -184 l-40 -28 -58 35 c-128 78
-219 184 -253 294 -25 82 -27 271 -4 394 34 185 140 519 164 519 4 0 24 -17
45 -37z m7542 -4023 c84 -184 153 -336 153 -337 0 -2 -1048 -3 -2330 -3 -1787
0 -2330 3 -2330 12 0 11 155 628 165 656 3 10 428 12 2097 10 l2092 -3 153
-335z m154 -391 c64 -34 338 -577 351 -693 l3 -30 -2605 3 c-1433 2 -2607 4
-2609 6 -2 3 38 164 88 358 50 195 91 357 91 361 0 11 4659 7 4681 -5z m-6217
-1888 c78 -38 172 -125 206 -191 33 -64 32 -132 -3 -192 -38 -65 -120 -135
-207 -177 -70 -34 -81 -36 -170 -35 -77 0 -110 5 -175 28 -182 62 -387 177
-459 256 -44 49 -47 75 -8 84 15 4 88 43 163 87 252 147 344 180 494 176 80
-2 98 -6 159 -36z"/>
<path d="M8344 7918 c-4 -12 -35 -134 -69 -270 l-63 -248 2234 0 c1229 0 2234
3 2234 8 0 4 -54 124 -119 267 l-120 260 -2045 3 -2045 2 -7 -22z"/>
<path d="M8624 7223 l-460 -3 -75 -293 -75 -292 275 -6 c472 -11 4771 -10
4771 1 0 42 -209 467 -268 545 l-38 50 -1834 0 c-1009 0 -2042 -1 -2296 -2z"/>
<path d="M17269 14058 c-1 -7 -1 -29 0 -48 3 -43 2 -43 -303 -300 -282 -236
-267 -226 -312 -212 -42 13 -64 7 -64 -17 0 -21 128 -178 152 -186 30 -11 40
4 34 49 -6 39 -4 44 36 82 24 23 152 132 285 244 l243 202 54 -6 c88 -11 84
10 -27 137 -55 63 -95 85 -98 55z"/>
<path d="M3905 13823 c-84 -106 -84 -103 -29 -192 110 -176 284 -492 284 -515
0 -6 -280 62 -469 115 -126 34 -179 45 -192 38 -19 -10 -97 -108 -118 -147
-21 -40 14 -58 55 -27 43 32 60 22 344 -206 151 -121 281 -228 288 -237 9 -11
12 -32 8 -58 -5 -38 6 -64 26 -64 16 0 150 190 144 205 -6 17 -51 21 -61 5
-20 -33 -65 -6 -310 186 -280 219 -280 220 -245 210 267 -72 551 -139 608
-143 63 -5 72 -4 72 11 0 30 -229 457 -318 594 -14 22 450 -310 506 -362 20
-18 23 -27 17 -64 -5 -33 -3 -43 10 -48 21 -8 38 7 112 105 84 112 81 124 -27
105 -34 -5 -49 4 -305 191 -149 108 -283 209 -299 225 -27 26 -28 30 -16 64 9
29 9 40 0 51 -21 25 -38 17 -85 -42z"/>
<path d="M17562 13728 c-7 -7 -12 -28 -12 -48 0 -23 -7 -43 -19 -54 -10 -9
-148 -105 -307 -212 -257 -173 -292 -195 -319 -189 -60 12 -79 10 -83 -7 -3
-16 106 -189 128 -203 19 -12 40 17 40 54 0 44 11 56 124 131 l80 53 60 -12
c120 -24 136 -30 136 -53 0 -34 -68 -226 -106 -298 -19 -37 -46 -77 -58 -89
-20 -19 -27 -20 -49 -10 -31 14 -57 6 -57 -18 0 -22 98 -171 120 -183 9 -5 33
-42 54 -82 21 -40 46 -82 56 -92 25 -25 50 -14 50 22 0 45 20 62 100 81 148
37 134 40 177 -38 21 -38 63 -116 93 -174 l55 -106 -70 -71 c-90 -92 -98 -96
-142 -75 -33 16 -36 16 -52 1 -15 -16 -12 -24 34 -113 27 -52 55 -98 62 -100
20 -8 40 13 47 49 4 22 43 69 134 162 161 165 230 244 334 384 90 119 131 192
126 219 -9 49 -299 34 -806 -43 -233 -35 -241 -26 -143 159 70 131 115 240
141 340 17 69 19 72 47 70 127 -12 356 -46 391 -60 31 -12 46 -13 54 -5 15 15
-1 49 -65 142 -60 86 -90 99 -95 40 -6 -59 -15 -63 -117 -57 -85 6 -341 48
-395 66 -23 7 -11 17 137 116 140 93 166 107 190 101 57 -15 78 -12 80 9 3 20
-113 196 -132 202 -6 2 -16 -2 -23 -9z m588 -1132 c0 -21 -262 -328 -271 -318
-4 4 -39 67 -79 141 -52 96 -68 136 -59 141 6 5 64 13 128 20 64 6 125 13 136
14 31 5 145 6 145 2z"/>
<path d="M3086 12578 c-43 -70 -96 -172 -96 -188 0 -25 23 -31 55 -14 15 8 37
14 48 14 24 0 609 -321 645 -353 14 -13 22 -32 22 -53 0 -39 20 -59 42 -41 21
16 108 176 111 201 2 24 -38 35 -56 17 -27 -27 -75 -7 -350 145 -362 201 -357
197 -357 233 0 16 -3 36 -6 45 -9 23 -41 20 -58 -6z"/>
<path d="M2848 12041 c-104 -95 -169 -243 -170 -386 -1 -228 164 -426 407
-490 312 -81 586 167 586 530 0 146 -8 160 -101 190 -30 10 -93 35 -139 56
-46 22 -92 39 -102 39 -24 0 -49 -39 -93 -146 -41 -99 -44 -137 -10 -142 17
-2 26 7 44 45 41 88 58 106 97 100 54 -9 172 -68 198 -98 31 -37 39 -95 25
-166 -24 -115 -96 -210 -198 -260 -51 -25 -68 -28 -157 -28 -114 1 -183 21
-273 81 -123 81 -191 185 -200 303 -12 175 95 311 260 329 54 6 63 10 63 27 0
29 -76 65 -136 65 -43 0 -53 -5 -101 -49z"/>
<path d="M6365 11963 c-49 -59 -117 -142 -152 -185 l-63 -76 67 24 c80 28 202
32 276 10 26 -8 47 -13 47 -13 0 1 -20 80 -43 175 l-43 173 -89 -108z"/>
<path d="M18650 11771 c-5 -11 -10 -28 -10 -39 0 -11 -6 -25 -14 -31 -22 -18
-667 -251 -696 -251 -14 0 -38 9 -54 19 -32 22 -56 18 -56 -9 0 -29 109 -320
148 -395 111 -213 324 -302 543 -226 173 59 271 148 319 292 19 54 21 79 17
164 -4 84 -11 116 -42 200 -20 55 -51 138 -68 185 -18 47 -36 91 -40 98 -12
18 -35 15 -47 -7z m49 -220 c35 -35 66 -148 66 -241 0 -73 -4 -93 -28 -142
-48 -98 -158 -175 -303 -212 -211 -54 -373 32 -450 241 -31 86 -27 115 19 140
62 33 612 231 645 232 19 1 40 -7 51 -18z"/>
<path d="M9266 11573 c-16 -53 -146 -571 -146 -581 0 -9 415 -12 1778 -12 977
0 1902 3 2054 7 l278 6 -27 48 c-47 87 -172 198 -313 277 -138 77 -405 167
-625 211 -283 57 -222 55 -1662 58 -1272 4 -1332 3 -1337 -14z"/>
<path d="M2496 11010 c-102 -94 -164 -296 -137 -445 17 -93 65 -181 140 -255
78 -77 142 -113 247 -140 134 -35 247 -22 366 42 131 70 214 219 233 418 8 77
-15 216 -42 262 -17 29 -26 34 -103 49 -47 9 -119 26 -161 38 -42 12 -83 19
-92 15 -21 -8 -40 -59 -67 -177 -21 -89 -21 -100 -7 -114 24 -24 44 -9 61 45
26 88 42 112 79 112 42 0 171 -36 202 -56 94 -61 75 -283 -36 -408 -42 -49
-153 -102 -228 -111 -184 -21 -406 91 -487 246 -25 47 -29 65 -29 139 0 163
75 260 233 300 36 9 43 15 40 33 -4 25 -58 45 -126 46 -36 1 -49 -5 -86 -39z"/>
<path d="M9065 10788 c-35 -51 -103 -309 -121 -460 l-7 -58 2228 0 2228 0 -6
173 c-6 171 -21 265 -53 333 l-16 34 -2119 0 -2118 0 -16 -22z"/>
<path d="M18103 10643 c-3 -9 1 -55 10 -101 23 -119 51 -142 83 -66 11 25 22
34 46 39 39 7 197 -9 208 -22 6 -6 67 -306 73 -363 2 -15 -175 -120 -202 -120
-7 0 -24 11 -37 25 -26 29 -52 32 -61 9 -8 -23 15 -172 34 -211 8 -18 12 -36
9 -42 -6 -9 9 -194 19 -239 9 -40 47 -25 61 23 7 28 19 44 39 54 25 12 673 76
682 67 6 -6 -236 -234 -365 -344 -70 -59 -172 -140 -227 -181 -126 -94 -155
-120 -155 -143 0 -25 38 -24 445 12 410 36 410 36 433 9 34 -42 43 -48 59 -42
14 5 15 20 9 112 -7 114 -21 146 -50 121 -9 -7 -16 -18 -16 -25 0 -7 -8 -22
-17 -34 -17 -19 -42 -23 -303 -46 -156 -14 -288 -25 -293 -25 -4 0 38 37 94
83 139 111 357 307 453 406 l79 82 -6 96 c-8 134 -37 160 -77 68 -10 -24 -23
-46 -29 -49 -17 -11 -694 -67 -724 -60 -18 4 -36 19 -49 40 -11 19 -24 34 -29
34 -5 0 1 16 13 35 18 26 62 55 183 122 295 163 625 400 625 449 0 45 -316
122 -769 188 -97 14 -185 33 -197 41 -30 19 -43 19 -51 -2z m576 -178 c128
-23 260 -56 266 -65 10 -16 -328 -240 -342 -226 -5 5 -63 287 -63 308 0 8 3 7
139 -17z"/>
<path d="M8885 10088 c-10 -35 -135 -561 -133 -563 2 -1 1007 -5 2235 -9
l2231 -7 11 33 c5 18 40 145 76 282 37 137 69 256 72 263 4 11 -384 13 -2241
13 -1789 0 -2247 -3 -2251 -12z"/>
<path d="M2231 10047 c-5 -13 -11 -66 -13 -118 -3 -89 -2 -94 18 -97 16 -2 25
5 34 28 7 17 22 33 35 36 21 5 456 -28 548 -42 37 -6 37 -6 -115 -93 -251
-144 -503 -307 -546 -354 -19 -20 -25 -41 -32 -113 -4 -49 -5 -94 -3 -101 10
-26 43 -13 67 26 14 22 30 42 35 45 14 9 694 -52 727 -64 16 -7 31 -24 41 -50
18 -46 48 -54 62 -16 5 13 11 75 13 137 3 108 2 114 -17 114 -13 0 -27 -13
-40 -38 -12 -23 -30 -40 -45 -44 -14 -4 -175 6 -358 22 -326 28 -333 29 -310
47 122 95 430 282 683 415 152 80 179 105 133 121 -13 5 -194 24 -403 41 -209
18 -394 37 -411 42 -20 6 -36 21 -47 44 -19 40 -44 45 -56 12z"/>
<path d="M8714 9342 c-44 -28 -115 -276 -149 -515 l-6 -47 1929 2 1929 3 106
53 c124 61 274 170 394 285 77 74 183 201 183 220 0 9 -4371 9 -4386 -1z"/>
<path d="M2156 9058 c-8 -38 -14 -198 -9 -219 7 -27 39 -24 59 6 9 14 24 30
33 34 9 5 172 4 381 -4 l365 -13 35 -41 c54 -63 64 -48 68 99 3 105 2 121 -13
126 -12 5 -28 -5 -52 -31 l-34 -38 -127 6 c-70 4 -219 9 -332 12 -282 8 -287
9 -312 51 -23 39 -55 46 -62 12z"/>
<path d="M2220 8658 c-55 -15 -60 -24 -60 -97 1 -124 39 -603 50 -616 6 -7 37
-16 70 -20 108 -13 128 14 59 80 -53 51 -79 107 -79 172 0 51 1 52 33 57 50 9
606 46 680 46 62 0 68 -2 84 -27 22 -35 33 -43 51 -35 13 4 14 24 8 126 -4 83
-10 125 -20 134 -18 18 -35 8 -52 -33 -9 -23 -22 -35 -41 -39 -16 -3 -163 -15
-328 -26 -165 -11 -323 -22 -351 -25 -65 -8 -84 8 -84 68 0 62 16 107 55 163
47 65 46 84 -2 83 -21 0 -54 -5 -73 -11z"/>
<path d="M8455 8373 c-32 -131 -60 -244 -62 -250 -4 -10 394 -13 1972 -13
1797 0 1977 1 1971 16 -3 8 -56 121 -118 250 l-112 234 -1797 0 -1796 0 -58
-237z"/>
<path d="M18311 8488 c-4 -13 -11 -69 -15 -124 -5 -86 -3 -104 10 -115 13 -11
21 -7 52 25 l36 39 80 -7 c45 -3 99 -6 121 -6 38 0 43 -4 104 -82 l65 -81 -35
-29 c-94 -80 -270 -176 -339 -185 -33 -5 -40 -2 -55 21 -12 18 -25 26 -39 24
-26 -4 -38 -66 -34 -171 3 -62 6 -72 22 -75 12 -3 29 7 45 25 16 18 62 45 116
68 147 63 302 153 367 213 l28 25 126 -129 c70 -71 141 -149 158 -173 57 -82
72 -63 82 98 6 99 5 111 -10 117 -11 4 -27 -3 -46 -21 -22 -21 -35 -26 -55
-21 -31 8 -166 141 -279 274 l-78 93 58 -5 c57 -6 320 -26 336 -26 4 0 19 -18
33 -41 33 -51 57 -49 66 6 6 35 12 150 10 196 -2 32 -30 29 -64 -8 l-34 -36
-319 22 c-449 30 -420 26 -450 72 -27 44 -50 50 -63 17z"/>
<path d="M18490 7619 c-200 -29 -335 -156 -377 -353 -44 -210 81 -420 299
-500 366 -136 693 69 676 424 -5 111 -44 196 -127 279 -111 111 -309 174 -471
150z m204 -149 c198 -50 318 -169 319 -315 1 -126 -51 -213 -161 -267 -63 -31
-73 -33 -172 -33 -164 1 -320 55 -411 141 -41 40 -80 119 -86 177 -16 151 88
284 247 317 60 12 173 4 264 -20z"/>
<path d="M3152 7577 c-6 -7 -16 -25 -21 -40 -6 -15 -21 -32 -33 -37 -30 -13
-674 -160 -700 -160 -11 0 -33 11 -50 25 -33 28 -56 32 -64 11 -7 -19 36 -212
52 -234 17 -23 46 -5 56 35 5 20 18 34 35 42 35 13 263 65 267 60 4 -7 116
-502 114 -504 -2 -2 -65 -17 -141 -34 l-138 -32 -35 31 c-40 34 -49 37 -62 14
-9 -16 18 -164 39 -222 13 -35 49 -26 64 16 6 19 18 38 27 43 29 16 710 170
728 164 9 -3 25 -14 35 -25 19 -22 50 -26 60 -10 9 14 -33 199 -51 227 -18 29
-40 20 -55 -24 -6 -19 -21 -39 -32 -44 -27 -12 -350 -88 -356 -83 -2 2 -29
115 -61 251 -51 220 -56 249 -41 255 24 11 319 78 344 78 11 0 33 -12 48 -26
32 -31 59 -26 59 10 0 13 -9 64 -21 113 -26 108 -41 132 -67 100z"/>
<path d="M18023 6783 c-6 -2 -28 -54 -49 -115 -31 -96 -34 -112 -22 -124 13
-13 19 -11 52 16 30 23 45 28 64 23 14 -3 159 -55 321 -114 l296 -107 -55 -6
c-30 -3 -111 -8 -180 -11 -262 -12 -464 -37 -476 -57 -3 -5 4 -24 17 -43 26
-36 256 -257 383 -367 91 -80 106 -93 91 -86 -5 3 -138 47 -295 98 -157 51
-297 98 -311 106 -19 9 -28 24 -33 52 -6 42 -27 59 -45 38 -13 -16 -81 -210
-81 -231 0 -27 29 -28 61 -1 17 14 37 26 45 26 15 0 613 -192 677 -217 34 -14
37 -19 37 -53 0 -36 20 -70 40 -70 5 0 17 11 26 25 21 32 63 166 57 181 -3 7
-59 59 -126 116 -144 122 -369 337 -362 348 5 8 258 28 496 39 104 4 162 11
172 20 17 14 67 153 67 187 0 36 -25 35 -61 -2 -18 -19 -39 -34 -46 -34 -22 0
-677 252 -695 267 -9 8 -19 29 -22 48 -7 36 -24 55 -43 48z"/>
<path d="M3352 6631 c-12 -28 -53 -69 -147 -147 -241 -200 -516 -487 -527
-549 -5 -33 40 -45 218 -57 130 -9 234 -9 462 1 207 8 298 9 305 2 16 -16 44
-13 51 5 7 18 -57 184 -75 195 -19 12 -39 -1 -45 -30 -3 -14 -9 -33 -13 -41
-10 -19 -96 -38 -177 -39 -57 -1 -62 1 -73 27 -18 38 -131 321 -131 327 0 11
156 136 177 141 15 4 31 0 43 -11 10 -9 29 -15 42 -13 32 4 28 32 -17 141 -43
102 -64 113 -93 48z m-102 -648 l10 -23 -210 0 c-172 0 -210 2 -210 14 0 7 66
78 147 156 l146 142 54 -134 c30 -73 58 -143 63 -155z"/>
<path d="M3632 5830 c-57 -26 -53 -45 21 -88 69 -40 124 -110 187 -237 35 -71
41 -92 34 -113 -7 -21 -68 -57 -324 -194 -173 -92 -321 -168 -329 -168 -7 0
-29 9 -48 21 -36 22 -63 20 -63 -6 0 -21 96 -199 115 -215 22 -18 45 5 45 45
0 18 8 39 18 47 19 17 610 333 641 343 10 3 35 -2 54 -11 37 -18 67 -14 67 8
-1 7 -69 141 -153 298 l-153 285 -34 3 c-19 1 -54 -7 -78 -18z"/>
<path d="M17632 5778 c-21 -27 -112 -206 -112 -222 0 -29 29 -29 72 0 l41 29
114 -60 c63 -33 116 -63 119 -66 2 -4 -7 -32 -21 -63 -54 -123 -69 -186 -70
-291 0 -92 2 -104 29 -153 62 -112 198 -169 300 -127 46 20 109 76 149 134 39
57 196 348 203 378 8 32 -21 40 -61 19 -20 -11 -41 -15 -55 -11 -46 15 -626
328 -642 347 -10 11 -18 32 -18 47 0 41 -27 63 -48 39z m625 -535 c31 -28 34
-36 28 -65 -17 -79 -94 -187 -156 -218 -85 -44 -194 -7 -240 82 -41 77 -24
232 37 350 l15 29 140 -73 c78 -40 157 -87 176 -105z"/>
<path d="M3940 5019 c-76 -11 -153 -41 -224 -87 -223 -148 -306 -378 -208
-585 79 -166 218 -257 396 -257 197 0 407 135 493 316 36 76 38 83 38 184 0
97 -2 110 -32 173 -61 129 -195 237 -311 252 -26 3 -58 7 -72 9 -14 1 -50 -1
-80 -5z m246 -129 c54 -23 111 -81 140 -144 70 -150 -8 -324 -201 -451 -108
-71 -166 -90 -280 -90 -77 0 -107 4 -132 18 -49 26 -100 81 -130 140 -85 166
27 369 269 491 133 66 237 78 334 36z"/>
<path d="M17205 4987 c-61 -29 -146 -119 -184 -196 -65 -128 -62 -233 10 -340
60 -90 136 -146 424 -311 l130 -75 5 -45 c4 -37 9 -46 27 -48 18 -3 32 13 78
84 75 116 69 150 -21 114 -41 -17 -60 -11 -184 58 -252 140 -384 245 -416 328
-42 110 26 268 140 323 55 27 129 27 203 0 69 -26 290 -173 396 -264 74 -63
77 -67 77 -109 0 -46 19 -72 45 -62 17 6 135 182 135 201 0 27 -28 38 -62 24
-18 -8 -39 -12 -47 -11 -8 2 -57 36 -110 76 -156 118 -261 186 -350 229 -72
35 -95 41 -165 44 -69 4 -88 1 -131 -20z"/>
<path d="M4576 4404 c-3 -8 -4 -25 0 -37 3 -14 -13 -69 -41 -141 -53 -138 -92
-279 -101 -370 l-7 -64 -191 2 c-105 2 -212 7 -237 11 -32 5 -49 4 -54 -4 -8
-14 25 -64 100 -146 46 -51 57 -58 72 -49 13 8 17 22 15 46 -4 57 12 63 162
63 151 0 366 -14 365 -23 0 -4 -63 -61 -140 -127 l-141 -120 -56 0 c-80 0 -80
-18 4 -113 74 -85 88 -96 111 -88 12 5 14 16 9 49 -3 27 -1 48 7 57 11 14 293
262 476 419 73 62 75 63 121 57 59 -8 78 8 53 45 -40 58 -137 159 -153 159
-22 0 -32 -24 -24 -55 10 -40 -3 -58 -94 -137 l-88 -75 -54 8 c-30 4 -76 8
-102 8 -27 1 -48 4 -48 9 0 4 7 49 15 100 17 105 65 261 95 310 18 29 24 32
62 30 68 -5 63 24 -17 116 -67 77 -105 96 -119 60z"/>
<path d="M16575 4173 c-99 -108 -101 -111 -82 -131 13 -13 21 -13 42 -4 14 7
34 12 44 12 18 0 540 -461 569 -502 32 -44 -85 -130 -196 -144 -83 -11 -81
-40 7 -96 25 -15 53 -28 63 -28 17 0 430 448 455 493 15 28 -1 58 -57 112 -40
39 -42 39 -56 21 -8 -12 -14 -43 -14 -75 0 -92 -61 -197 -109 -189 -22 3 -560
483 -563 501 0 7 -1 32 -2 57 -1 31 -6 45 -16 47 -8 2 -46 -31 -85 -74z"/>
<path d="M16254 3798 c-68 -52 -463 -431 -469 -449 -7 -22 29 -91 64 -123 32
-29 47 -15 54 49 8 76 38 123 144 226 118 115 133 125 170 106 29 -16 243
-239 243 -254 0 -5 -49 -55 -110 -110 -79 -73 -119 -102 -144 -107 -61 -12
-64 -29 -10 -86 25 -27 53 -50 60 -50 7 0 19 18 25 41 10 31 38 64 121 145 60
57 113 104 118 104 11 0 190 -198 190 -211 0 -36 -79 -123 -188 -207 -56 -44
-104 -62 -164 -62 -47 0 -51 -24 -10 -62 51 -48 74 -58 100 -44 12 6 121 104
242 216 246 228 257 245 163 245 -43 0 -57 5 -76 25 -14 14 -127 135 -252 269
l-227 245 6 47 c8 62 -9 78 -50 47z"/>
<path d="M5145 3761 c-53 -32 -96 -78 -89 -95 5 -12 20 -16 63 -16 82 0 142
-34 261 -147 123 -117 125 -124 43 -215 -91 -101 -177 -188 -185 -188 -4 0
-57 48 -117 106 -72 69 -112 115 -116 134 -12 57 -31 58 -80 5 -57 -61 -58
-83 -5 -91 32 -5 60 -26 154 -112 l115 -105 -90 -98 c-50 -54 -99 -101 -110
-104 -27 -9 -68 16 -152 95 -89 83 -137 151 -137 194 0 45 -11 76 -25 76 -16
0 -95 -88 -95 -105 0 -22 37 -60 242 -252 247 -229 234 -219 252 -203 11 8 13
24 9 59 l-5 48 199 214 c110 118 222 239 250 269 49 53 52 55 104 55 98 0 91
9 -251 326 -134 125 -186 169 -200 169 -3 0 -18 -8 -35 -19z"/>
<path d="M15613 3240 c-98 -73 -117 -94 -109 -116 5 -14 15 -16 56 -11 l51 6
95 -120 95 -119 -72 -79 -73 -78 -66 18 c-130 37 -245 92 -279 133 -11 13 -11
22 -1 46 14 34 8 60 -15 60 -16 0 -170 -114 -195 -145 -19 -23 -2 -35 54 -40
31 -2 80 -21 147 -55 55 -28 139 -66 187 -85 53 -20 86 -39 85 -47 -1 -7 -11
-38 -22 -68 -37 -99 -23 -182 41 -255 47 -53 111 -80 165 -70 65 12 164 71
319 191 82 64 160 126 173 139 35 34 22 55 -32 55 -34 0 -49 6 -69 28 -64 67
-438 557 -438 573 0 10 5 30 10 45 10 26 0 54 -20 54 -5 0 -44 -27 -87 -60z
m334 -549 c110 -141 121 -162 104 -194 -17 -30 -105 -100 -167 -132 -68 -35
-113 -41 -158 -20 -84 40 -105 144 -48 250 30 56 156 215 171 215 3 0 48 -53
98 -119z"/>
<path d="M5773 3150 c-58 -12 -98 -35 -147 -83 -52 -52 -78 -107 -84 -174 -6
-70 25 -134 122 -248 112 -133 137 -196 102 -263 -47 -89 -145 -118 -230 -68
-80 47 -111 102 -130 230 -6 44 -16 81 -23 83 -19 7 -83 -86 -83 -121 0 -73
122 -215 226 -263 72 -33 130 -38 195 -20 105 31 189 136 189 237 0 64 -34
130 -124 239 -125 153 -144 212 -92 291 70 107 223 105 344 -4 62 -57 85 -121
81 -229 -3 -77 -2 -91 14 -101 12 -8 22 -8 35 0 29 19 42 56 42 126 0 100 -29
169 -104 244 -100 99 -225 146 -333 124z"/>
<path d="M6785 2277 c-164 -78 -207 -284 -88 -417 110 -123 298 -119 403 7 33
40 60 116 60 168 0 91 -55 184 -137 232 -66 39 -169 43 -238 10z"/>
<path d="M7753 2213 c-5 -12 2 -23 22 -37 15 -12 37 -28 49 -37 l21 -17 -109
-338 c-140 -440 -124 -404 -184 -404 -56 0 -83 -19 -62 -44 13 -17 303 -116
336 -116 31 0 38 27 12 48 -11 9 -31 26 -44 37 l-24 20 46 145 c26 80 49 148
53 152 12 13 295 -51 309 -70 49 -63 162 -328 162 -377 0 -29 -26 -45 -73 -45
-40 0 -54 -21 -29 -43 22 -19 360 -130 372 -122 21 13 8 41 -29 68 -37 26 -42
36 -86 173 -25 80 -68 189 -96 242 -27 53 -49 97 -49 98 0 1 43 4 95 7 201 12
308 110 265 243 -18 52 -92 128 -166 170 -59 33 -729 264 -767 264 -10 0 -21
-8 -24 -17z m447 -195 c180 -58 297 -132 320 -204 23 -69 -27 -141 -113 -165
-61 -17 -270 -4 -402 24 -97 20 -110 26 -107 42 2 11 26 89 54 173 63 196 56
192 248 130z"/>
<path d="M14668 2196 c-49 -18 -89 -51 -128 -108 -28 -41 -34 -59 -38 -123 -6
-93 12 -145 69 -202 60 -61 101 -78 189 -78 64 0 82 4 122 27 61 36 105 91
123 152 19 63 19 99 0 162 -41 138 -200 219 -337 170z"/>
<path d="M13417 2052 c-9 -10 -23 -37 -31 -60 -26 -74 -203 -783 -216 -867
-10 -64 -18 -87 -42 -113 -59 -69 -8 -78 147 -27 136 44 155 54 155 76 0 19
-19 29 -58 29 -63 1 -77 41 -58 162 8 50 19 94 23 98 4 5 134 49 287 100 l280
91 83 -83 c46 -45 86 -91 89 -101 4 -13 -5 -28 -32 -51 -38 -33 -43 -66 -9
-66 37 0 326 102 332 117 8 21 -23 43 -60 43 -25 0 -59 29 -216 183 -198 194
-296 277 -456 386 -156 107 -187 118 -218 83z m276 -326 c81 -65 147 -121 147
-125 0 -4 -112 -43 -250 -88 -137 -44 -250 -78 -250 -76 0 3 27 109 60 235 33
127 60 233 60 236 0 2 19 -11 43 -30 23 -19 108 -87 190 -152z"/>
<path d="M12667 1840 c-75 -10 -134 -23 -142 -31 -7 -8 -48 -93 -91 -189 -71
-158 -225 -462 -244 -483 -4 -5 -108 119 -230 275 -121 155 -229 289 -239 295
-14 10 -46 9 -165 -6 -82 -11 -153 -24 -158 -29 -22 -22 1 -40 56 -46 52 -7
56 -9 61 -39 13 -74 85 -691 85 -725 0 -35 -3 -40 -45 -60 -45 -22 -58 -48
-29 -59 20 -8 290 24 315 38 40 21 14 45 -60 55 -29 4 -55 12 -57 19 -5 13
-92 719 -89 723 1 1 55 -69 121 -155 196 -260 393 -483 425 -483 10 0 28 13
42 29 35 42 138 242 253 493 l99 217 8 -47 c19 -114 82 -664 77 -672 -3 -5
-22 -16 -43 -25 -41 -17 -51 -49 -18 -60 25 -8 325 31 352 45 39 22 14 43 -66
57 l-50 8 -42 340 c-23 187 -42 363 -42 391 l-1 52 55 22 c56 23 73 51 39 64
-20 8 -23 7 -177 -14z"/>
<path d="M9305 1809 c-195 -29 -350 -130 -422 -277 -37 -74 -38 -79 -38 -186
0 -105 2 -115 33 -180 49 -104 142 -190 274 -255 154 -77 230 -94 423 -95 127
-1 173 3 225 17 216 61 355 199 380 379 42 293 -232 546 -645 597 -102 12
-144 12 -230 0z m293 -85 c164 -33 296 -127 356 -253 29 -61 31 -74 30 -171 0
-130 -23 -195 -94 -273 -85 -93 -203 -140 -350 -140 -106 0 -175 15 -267 60
-88 43 -173 128 -209 210 -66 149 -30 340 85 452 115 112 270 152 449 115z"/>
<path d="M10682 1710 c-148 -23 -273 -89 -329 -174 -27 -40 -33 -58 -33 -103
0 -147 89 -197 447 -248 209 -30 299 -50 340 -75 43 -26 67 -73 60 -121 -15
-115 -164 -189 -380 -189 -176 0 -262 30 -365 125 -63 58 -106 71 -132 40 -47
-57 95 -177 260 -222 96 -26 337 -23 442 5 259 70 383 234 294 387 -56 94
-143 132 -384 165 -235 33 -274 40 -323 61 -64 28 -90 58 -96 113 -5 44 -3 48
38 90 58 58 130 81 254 80 118 -1 199 -25 292 -86 42 -27 83 -48 92 -46 17 3
27 71 17 113 -12 46 -145 83 -321 90 -66 2 -144 0 -173 -5z"/>
</g>
</svg>
